<svg xmlns="http://www.w3.org/2000/svg" xmlns:xlink="http://www.w3.org/1999/xlink" version="1.1" width="3162.175444344336" 
        height="591.7695431971357" viewBox="0 0 3162.175444344336 591.7695431971357">
    <g transform="scale(8.108772217216808) translate(10, 10)">
        <defs id="SvgjsDefs2107"></defs>
        <g id="SvgjsG2108" featureKey="pxMwYC-0" transform="matrix(0.8285984848484849,0,0,0.8285984848484849,0,-0.02568666682098851)" fill="#240cf2">
            <g xmlns="http://www.w3.org/2000/svg" display="none">
                <rect x="-632.495" y="-10.779" display="inline" fill="#240cf2" width="787" height="375.042"></rect>
            </g>
            <g xmlns="http://www.w3.org/2000/svg" display="none">
                <g display="inline">
                    <circle fill="#240cf2" cx="32" cy="32" r="32"></circle>
                    <path fill="#240cf2" d="M32,32L5.232,49.529C10.95,58.242,20.8,64,32,64c17.673,0,32-14.327,32-32H32z"></path>
                    <path fill="#240cf2" d="M43.293,2.056L32,32h32C64,18.303,55.392,6.621,43.293,2.056z"></path>
                </g>
            </g>
            <g xmlns="http://www.w3.org/2000/svg" display="none">
                <ellipse display="inline" fill="none" stroke="#240cf2" stroke-width="2" stroke-miterlimit="10" cx="32" cy="32" rx="31" ry="30.969"></ellipse>
                <path display="inline" fill="none" stroke="#240cf2" stroke-width="2" stroke-miterlimit="10" d="M32,32L6.069,48.964   C11.608,57.396,21.15,62.969,32,62.969c17.121,0,31-13.865,31-30.969H32z"></path>
                <path display="inline" fill="none" stroke="#240cf2" stroke-width="2" stroke-miterlimit="10" d="M42.94,3.021L32,32h31   C63,18.744,54.661,7.439,42.94,3.021z"></path>
            </g>
            <g xmlns="http://www.w3.org/2000/svg">
                <g>
                    <path d="M4.873,63.969h54.254c2.687,0,4.873-2.187,4.873-4.873V4.904c0-2.687-2.187-4.873-4.873-4.873H4.873    C2.187,0.031,0,2.217,0,4.904v54.191C0,61.782,2.187,63.969,4.873,63.969z M42.517,14.059h11.826v35.881H42.517V14.059z     M26.087,24.906h11.826v25.035H26.087V24.906z M9.658,35.209h11.826v14.732H9.658V35.209z"></path>
                </g>
            </g>
            <g xmlns="http://www.w3.org/2000/svg" display="none">
                <ellipse display="inline" fill="#240cf2" stroke="#240cf2" stroke-width="2" stroke-miterlimit="10" cx="32" cy="32" rx="31" ry="30.969"></ellipse>
                <path display="inline" fill="#240cf2" d="M43.189,3.254L32.522,31.678l29.879-0.242c0,0,1.273-8.97-5.515-17.515   S43.189,3.254,43.189,3.254z"></path>
                <path display="inline" fill="#240cf2" stroke="#240cf2" stroke-width="2" stroke-miterlimit="10" d="M32,32L6.069,48.964   C11.608,57.396,21.15,62.969,32,62.969c17.121,0,31-13.865,31-30.969H32z"></path>
                <path display="inline" fill="none" stroke="#240cf2" stroke-width="2" stroke-miterlimit="10" d="M42.94,3.021L32,32h31   C63,18.744,54.661,7.439,42.94,3.021z"></path>
            </g>
        </g>
        <g id="SvgjsG2109" featureKey="Vx5QiU-0" transform="matrix(2.6373863320961735,0,0,2.6373863320961735,69.9406319428007,-12.874858560893353)" fill="#000000">
            <path d="M2.84 15.26 c0 2.78 1.74 3.52 2.86 3.52 c1.92 0 2.82 -1.74 2.82 -4.04 c0 -1.34 -0.14 -3.92 -2.86 -3.92 c-2.54 0 -2.82 2.74 -2.82 4.44 z M1.16 24.14 l0 -14.6 l1.66 0 l0 1.48 l0.04 0 c0.42 -0.6 1.22 -1.78 3.12 -1.78 c2.78 0 4.36 2.28 4.36 5.22 c0 2.5 -1.04 5.84 -4.6 5.84 c-1.4 0 -2.32 -0.66 -2.78 -1.4 l-0.04 0 l0 5.24 l-1.76 0 z M14.22 9.54 l0 10.46 l-1.76 0 l0 -10.46 l1.76 0 z M14.22 7.640000000000001 l-1.76 0 l0 -2 l1.76 0 l0 2 z M18.400000000000002 15.26 c0 2.78 1.74 3.52 2.86 3.52 c1.92 0 2.82 -1.74 2.82 -4.04 c0 -1.34 -0.14 -3.92 -2.86 -3.92 c-2.54 0 -2.82 2.74 -2.82 4.44 z M16.720000000000002 24.14 l0 -14.6 l1.66 0 l0 1.48 l0.04 0 c0.42 -0.6 1.22 -1.78 3.12 -1.78 c2.78 0 4.36 2.28 4.36 5.22 c0 2.5 -1.04 5.84 -4.6 5.84 c-1.4 0 -2.32 -0.66 -2.78 -1.4 l-0.04 0 l0 5.24 l-1.76 0 z M29.780000000000005 5.640000000000001 l0 14.36 l-1.76 0 l0 -14.36 l1.76 0 z M39.540000000000006 12.719999999999999 l-1.62 0 c0.08 -2.5 1.74 -3.48 4.32 -3.48 c0.84 0 3.88 0.24 3.88 2.92 l0 6.02 c0 0.44 0.22 0.62 0.58 0.62 c0.16 0 0.38 -0.04 0.58 -0.08 l0 1.28 c-0.3 0.08 -0.56 0.2 -0.96 0.2 c-1.56 0 -1.8 -0.8 -1.86 -1.6 c-0.68 0.74 -1.74 1.7 -3.78 1.7 c-1.92 0 -3.28 -1.22 -3.28 -3.02 c0 -0.88 0.26 -2.92 3.18 -3.28 l2.9 -0.36 c0.42 -0.04 0.92 -0.2 0.92 -1.24 c0 -1.1 -0.8 -1.7 -2.46 -1.7 c-2 0 -2.28 1.22 -2.4 2.02 z M44.36000000000001 16.38 l0 -1.72 c-0.28 0.22 -0.72 0.38 -2.9 0.66 c-0.86 0.12 -2.24 0.38 -2.24 1.7 c0 1.14 0.58 1.82 1.9 1.82 c1.64 0 3.24 -1.06 3.24 -2.46 z M57.62000000000001 12.879999999999999 l0 7.12 l-1.76 0 l0 -6.44 c0 -1.82 -0.52 -2.74 -2.24 -2.74 c-1 0 -2.76 0.64 -2.76 3.48 l0 5.7 l-1.76 0 l0 -10.46 l1.66 0 l0 1.48 l0.04 0 c0.38 -0.56 1.36 -1.78 3.16 -1.78 c1.62 0 3.66 0.66 3.66 3.64 z M61.780000000000015 12.719999999999999 l-1.62 0 c0.08 -2.5 1.74 -3.48 4.32 -3.48 c0.84 0 3.88 0.24 3.88 2.92 l0 6.02 c0 0.44 0.22 0.62 0.58 0.62 c0.16 0 0.38 -0.04 0.58 -0.08 l0 1.28 c-0.3 0.08 -0.56 0.2 -0.96 0.2 c-1.56 0 -1.8 -0.8 -1.86 -1.6 c-0.68 0.74 -1.74 1.7 -3.78 1.7 c-1.92 0 -3.28 -1.22 -3.28 -3.02 c0 -0.88 0.26 -2.92 3.18 -3.28 l2.9 -0.36 c0.42 -0.04 0.92 -0.2 0.92 -1.24 c0 -1.1 -0.8 -1.7 -2.46 -1.7 c-2 0 -2.28 1.22 -2.4 2.02 z M66.60000000000002 16.38 l0 -1.72 c-0.28 0.22 -0.72 0.38 -2.9 0.66 c-0.86 0.12 -2.24 0.38 -2.24 1.7 c0 1.14 0.58 1.82 1.9 1.82 c1.64 0 3.24 -1.06 3.24 -2.46 z M73.14000000000001 5.640000000000001 l0 14.36 l-1.76 0 l0 -14.36 l1.76 0 z M79.52000000000002 18.06 l2.8 -8.52 l1.94 0 c-1.22 3.42 -2.42 6.84 -3.76 10.26 c-1.66 4.24 -1.84 4.48 -4.1 4.48 c-0.26 0 -0.46 -0.08 -0.74 -0.16 l0 -1.6 c0.22 0.08 0.58 0.18 1.06 0.18 c0.92 0 1.02 -0.26 1.86 -2.42 l-3.88 -10.74 l2 0 l2.78 8.52 l0.04 0 z M89.62000000000002 11 l-1.68 0 l0 6.8 c0 0.82 0.7 0.82 1.06 0.82 l0.62 0 l0 1.38 c-0.64 0.06 -1.14 0.14 -1.32 0.14 c-1.74 0 -2.12 -0.98 -2.12 -2.24 l0 -6.9 l-1.42 0 l0 -1.46 l1.42 0 l0 -2.92 l1.76 0 l0 2.92 l1.68 0 l0 1.46 z M93.14000000000001 9.54 l0 10.46 l-1.76 0 l0 -10.46 l1.76 0 z M93.14000000000001 7.640000000000001 l-1.76 0 l0 -2 l1.76 0 l0 2 z M104.02000000000001 13.059999999999999 l-1.7 0 c-0.22 -1.4 -1 -2.24 -2.48 -2.24 c-2.18 0 -2.88 2.08 -2.88 3.94 c0 1.8 0.44 4.02 2.86 4.02 c1.18 0 2.2 -0.88 2.5 -2.48 l1.7 0 c-0.18 1.66 -1.2 4 -4.26 4 c-2.94 0 -4.68 -2.22 -4.68 -5.24 c0 -3.24 1.56 -5.82 5.02 -5.82 c2.74 0 3.78 2 3.92 3.82 z M113.42000000000002 12.52 l-1.7 0 c-0.02 -0.66 -0.26 -1.76 -2.48 -1.76 c-0.54 0 -2.08 0.18 -2.08 1.48 c0 0.86 0.54 1.06 1.9 1.4 l1.76 0.44 c2.18 0.54 2.94 1.34 2.94 2.76 c0 2.16 -1.78 3.46 -4.14 3.46 c-4.14 0 -4.44 -2.4 -4.5 -3.66 l1.7 0 c0.06 0.82 0.3 2.14 2.78 2.14 c1.26 0 2.4 -0.5 2.4 -1.66 c0 -0.84 -0.58 -1.12 -2.08 -1.5 l-2.04 -0.5 c-1.46 -0.36 -2.42 -1.1 -2.42 -2.54 c0 -2.3 1.9 -3.34 3.96 -3.34 c3.74 0 4 2.76 4 3.28 z"></path>
        </g>
    </g>
</svg>